<svg width="91.000000" height="91.000000" viewBox="0 0 91 91" fill="none" xmlns="http://www.w3.org/2000/svg" xmlns:xlink="http://www.w3.org/1999/xlink">
	<desc>
			Created with Pixso.
	</desc>
	<defs/>
	<rect id="Rectangle 10" rx="45.500000" width="91.000000" height="91.000000" fill="#FAC663" fill-opacity="1.000000"/>
	<path id="Vector" d="M71.34 39.98C72.74 40.46 72.98 41.21 72.99 41.62C73.01 42.03 72.84 42.8 71.5 43.39L69.15 44.43C69.74 44.76 70.02 45.46 69.77 46.1L67.76 51.32C67.63 51.67 67.36 51.95 67 52.11C66.81 52.19 66.6 52.24 66.39 52.24C66.22 52.24 66.05 52.21 65.88 52.15L64.43 51.65C63.76 52.69 62.56 53.31 61.3 53.31C60.88 53.31 60.46 53.24 60.05 53.1L47.41 48.75C46.71 49.87 45.54 50.58 44.24 50.75L41.99 56.62C41.25 58.54 39.31 59.82 37.15 59.82L30.4 59.82L30.4 61.91C30.4 63.06 29.41 64 28.2 64L26.73 64C26.32 64 26 63.68 26 63.3L26 52.18C26 51.79 26.32 51.48 26.73 51.48L28.2 51.48C29.41 51.48 30.4 52.42 30.4 53.57L30.4 55.65L37.15 55.65C37.46 55.65 37.74 55.47 37.85 55.19L40.15 49.2C39.41 48.3 39.06 47.14 39.27 45.95L28.45 42.23C26.55 41.57 25.56 39.58 26.26 37.77L28.52 31.9L29.52 29.28C30.22 27.48 32.33 26.55 34.23 27.2L71.34 39.98ZM31.4 36.59L59.55 46.27C60.29 46.53 61.2 46.65 62.13 46.65C63.14 46.65 64.18 46.5 65.04 46.21L63.37 50.55C62.96 51.63 61.69 52.19 60.55 51.8L28.95 40.92C27.81 40.53 27.22 39.33 27.64 38.25L28.89 34.98C29.31 35.59 29.94 36.08 30.71 36.35L31.4 36.59L31.4 36.59L31.4 36.59ZM66.38 50.85L68.39 45.62L67.3 45.24L66.91 45.42L65 50.37L66.38 50.85ZM43.67 49.4C43.69 49.4 43.7 49.4 43.72 49.4C44.61 49.37 45.45 48.96 45.99 48.26L40.69 46.44C40.63 47.22 40.92 47.97 41.47 48.52C41.5 48.54 41.53 48.57 41.56 48.6C41.85 48.87 42.21 49.09 42.62 49.23C42.96 49.35 43.32 49.4 43.67 49.4ZM37.15 58.43C38.69 58.43 40.08 57.51 40.61 56.14L42.7 50.7C42.51 50.66 42.31 50.6 42.11 50.54C41.84 50.44 41.58 50.32 41.34 50.18L39.23 55.67C38.91 56.49 38.08 57.04 37.15 57.04L30.4 57.04L30.4 58.43L37.15 58.43ZM28.2 62.6C28.6 62.6 28.93 62.29 28.93 61.91L28.93 53.57C28.93 53.18 28.6 52.87 28.2 52.87L27.46 52.87L27.46 62.6L28.2 62.6Z" fill="#FFFDFB" fill-opacity="1.000000" fill-rule="evenodd"/>
</svg>
