<svg width="91.000000" height="91.000000" viewBox="0 0 91 91" fill="none" xmlns="http://www.w3.org/2000/svg" xmlns:xlink="http://www.w3.org/1999/xlink">
	<desc>
			Created with Pixso.
	</desc>
	<defs/>
	<rect id="Rectangle 9" rx="45.500000" width="91.000000" height="91.000000" fill="#FAC663" fill-opacity="1.000000"/>
	<path id="Vector" d="M60.18 30.63C60.63 30.63 61 31 61 31.45C61 31.91 60.63 32.27 60.18 32.27L52.85 32.27C52.39 32.27 52.03 31.91 52.03 31.45C52.03 31 52.39 30.63 52.85 30.63L60.18 30.63ZM56.42 34.33L52.85 34.33C52.39 34.33 52.03 34.7 52.03 35.15C52.03 35.6 52.39 35.97 52.85 35.97L56.42 35.97C56.87 35.97 57.23 35.6 57.23 35.15C57.23 34.7 56.87 34.33 56.42 34.33ZM52.85 39.67L60.18 39.67C60.63 39.67 61 39.3 61 38.85C61 38.4 60.63 38.03 60.18 38.03L52.85 38.03C52.39 38.03 52.03 38.4 52.03 38.85C52.03 39.3 52.39 39.67 52.85 39.67ZM56.42 41.73L52.85 41.73C52.39 41.73 52.03 42.1 52.03 42.55C52.03 43 52.39 43.37 52.85 43.37L56.42 43.37C56.87 43.37 57.23 43 57.23 42.55C57.23 42.1 56.87 41.73 56.42 41.73ZM52.85 47.07L60.18 47.07C60.63 47.07 61 46.7 61 46.25C61 45.8 60.63 45.43 60.18 45.43L52.85 45.43C52.39 45.43 52.03 45.8 52.03 46.25C52.03 46.7 52.39 47.07 52.85 47.07ZM53.43 61.13C53.43 67.67 48.17 73 41.71 73C35.25 73 30 67.67 30 61.13C30 56.89 32.19 53.03 35.78 50.9L35.78 24C35.78 20.69 38.44 18 41.71 18C44.98 18 47.64 20.69 47.64 24L47.64 50.9C51.23 53.03 53.43 56.89 53.43 61.13ZM51.8 61.13C51.8 57.53 49.83 53.57 46.65 51.94L46.02 51.61L46.02 24C46.02 21.98 43.7 19.64 41.71 19.64C39.72 19.64 37.41 21.98 37.41 24L37.41 51.61L36.77 51.94C33.59 53.57 31.62 57.53 31.62 61.13C31.62 66.38 36.53 71.36 41.71 71.36C46.89 71.36 51.8 66.38 51.8 61.13ZM49.18 61.13C49.18 65.3 45.83 68.7 41.71 68.7C37.59 68.7 34.24 65.3 34.24 61.13C34.24 57.71 37.21 54.7 40.48 53.82L40.91 53.71L40.91 40.06C40.91 39.61 41.27 39.25 41.71 39.25C42.16 39.25 42.52 39.61 42.52 40.06L42.52 53.71L42.95 53.82C46.21 54.7 49.18 57.71 49.18 61.13ZM42.74 56.07C42.56 55.27 41.8 55.46 40.98 55.65C38.15 56.3 36.17 58.81 36.17 61.75C36.17 62.58 36.17 63.48 37.23 63.48C37.79 63.48 37.92 62.55 37.92 61.71C37.92 60.22 38.83 57.98 40.98 57.48C41.78 57.3 42.92 56.88 42.74 56.07Z" fill="#FFFDFB" fill-opacity="1.000000" fill-rule="nonzero"/>
</svg>
