<svg width="91.000000" height="91.000000" viewBox="0 0 91 91" fill="none" xmlns="http://www.w3.org/2000/svg" xmlns:xlink="http://www.w3.org/1999/xlink">
	<desc>
			Created with Pixso.
	</desc>
	<defs/>
	<rect id="Rectangle 14" rx="45.500000" width="91.000000" height="91.000000" fill="#FAC663" fill-opacity="1.000000"/>
	<path id="Vector" d="M47.5 27.73C47.5 29.79 46.09 31.47 44.37 31.47C42.65 31.47 41.25 29.79 41.25 27.73C41.25 25.67 42.65 24 44.37 24C46.09 24 47.5 25.67 47.5 27.73ZM55.34 27.73C55.34 29.79 53.94 31.47 52.21 31.47C50.49 31.47 49.09 29.79 49.09 27.73C49.09 25.67 50.49 24 52.21 24C53.94 24 55.34 25.67 55.34 27.73ZM40.45 33.03C40.45 34.67 39.36 35.95 37.97 35.95C36.58 35.95 35.5 34.67 35.5 33.03C35.5 31.39 36.58 30.11 37.97 30.11C39.36 30.11 40.45 31.39 40.45 33.03ZM60.07 33.03C60.07 34.67 58.98 35.95 57.59 35.95C56.2 35.95 55.11 34.67 55.11 33.03C55.11 31.39 56.2 30.11 57.59 30.11C58.98 30.11 60.07 31.39 60.07 33.03ZM39.7 39.61C39.7 38.97 39.82 38.36 40.07 37.77C40.58 36.56 41.57 35.32 43.5 33.48C45.61 31.46 49.02 31.2 51.45 32.86C51.46 32.88 51.48 32.92 51.51 32.98C51.58 33.14 51.71 33.41 51.71 33.6C51.71 33.64 51.71 33.67 51.7 33.7C51.68 33.73 51.66 33.75 51.64 33.78C51.5 33.9 51.19 33.86 50.95 33.83C50.79 33.81 50.66 33.79 50.66 33.84C50.66 33.85 50.68 33.87 50.7 33.9C48.8 32.57 46.12 32.77 44.46 34.36C42.69 36.05 41.75 37.21 41.31 38.23C41.13 38.67 41.04 39.13 41.04 39.61L41.04 39.63C41.05 41.61 42.78 43.28 44.91 43.34C45.84 43.37 46.76 43.09 47.49 42.55C47.74 42.37 48.08 42.37 48.32 42.55C49.06 43.09 49.98 43.37 50.91 43.34C53.04 43.28 54.74 41.67 54.78 39.68C54.78 39.66 54.78 39.63 54.78 39.61C54.78 39.03 54.65 38.48 54.38 37.97C54.1 37.43 51.59 34.84 50.7 33.9C51 34.11 51.42 34.06 51.64 33.78C51.67 33.76 51.69 33.73 51.7 33.7C51.75 33.61 51.78 33.5 51.78 33.4C51.78 33.3 51.75 33.19 51.69 33.09C52.79 34.25 55.26 36.81 55.58 37.42C55.94 38.11 56.12 38.84 56.12 39.6C56.12 39.64 56.12 39.67 56.12 39.7C56.1 40.98 55.55 42.19 54.58 43.11C53.61 44.03 52.32 44.55 50.95 44.59C50.9 44.59 50.84 44.6 50.79 44.6C49.77 44.6 48.77 44.32 47.91 43.81C47.01 44.35 45.94 44.62 44.87 44.59C43.48 44.55 42.19 44.02 41.21 43.08C40.24 42.15 39.7 40.93 39.7 39.63C39.7 39.62 39.7 39.62 39.7 39.61ZM51.45 32.86C51.45 32.85 51.47 32.86 51.51 32.9C51.49 32.89 51.47 32.88 51.45 32.86C51.45 32.86 51.45 32.86 51.45 32.86ZM51.69 33.09C51.62 33.02 51.56 32.96 51.51 32.9C51.58 32.96 51.64 33.02 51.69 33.09ZM62.4 42.95C63.36 42.95 64.26 43.3 64.94 43.93C65.64 44.59 66 45.45 66 46.31C66 47.17 65.64 48.03 64.94 48.69L56.42 56.66C56.29 56.78 56.12 56.84 55.95 56.84L48.5 56.84C48.49 56.84 48.49 56.84 48.48 56.84L45.71 56.84L43.71 58.68L44.32 59.25C44.45 59.37 44.52 59.53 44.52 59.69C44.52 59.86 44.45 60.02 44.32 60.14L37.18 66.81C37.06 66.93 36.88 67 36.71 67L36.71 67L25.66 66.97C25.29 66.97 25 66.69 25 66.34L25 66.34L25.01 61.19C25.01 61.04 25.07 60.89 25.18 60.77L31.12 54.56C31.14 54.53 31.16 54.51 31.18 54.49L34.73 51.17C34.99 50.93 35.42 50.93 35.68 51.17L36.22 51.68C36.31 49.08 38.39 46.95 41.07 46.58C41.16 46.54 41.27 46.52 41.37 46.52L47.59 46.52C47.59 46.52 47.6 46.52 47.6 46.52L53.25 46.52C54.31 46.52 55.26 46.94 55.91 47.62L59.86 43.93C60.54 43.3 61.44 42.95 62.4 42.95ZM47.98 55.59C47.98 55.59 47.99 55.59 47.99 55.59L55.67 55.59L64 47.8C64.44 47.39 64.66 46.85 64.66 46.31C64.66 45.77 64.44 45.23 64 44.82C63.12 44 61.68 44 60.8 44.82L56.65 48.7C56.64 48.71 56.64 48.72 56.63 48.72C56.77 49.08 56.85 49.47 56.85 49.88C56.85 51.73 55.23 53.24 53.25 53.24L47.6 53.24C47.23 53.24 46.93 52.96 46.93 52.62C46.93 52.27 47.23 51.99 47.6 51.99L53.25 51.99C54.5 51.99 55.51 51.04 55.51 49.88C55.51 48.72 54.5 47.77 53.25 47.77L47.93 47.77C47.92 47.77 47.92 47.77 47.91 47.77L42.02 47.77C41.98 47.78 41.94 47.78 41.9 47.78C39.51 47.78 37.56 49.6 37.56 51.84C37.56 52.2 37.61 52.56 37.7 52.9L42.85 57.71L44.96 55.77C45.09 55.65 45.25 55.59 45.43 55.59L47.98 55.59ZM32.64 54.89L40.34 62.09L42.9 59.69L35.2 52.5L32.64 54.89ZM26.34 65.71L36.43 65.74L39.35 63.01L31.68 55.85L26.34 61.43L26.34 65.71Z" fill="#FFFDFB" fill-opacity="1.000000" fill-rule="evenodd"/>
</svg>
