<svg width="91.000000" height="91.000000" viewBox="0 0 91 91" fill="none" xmlns="http://www.w3.org/2000/svg" xmlns:xlink="http://www.w3.org/1999/xlink">
	<desc>
			Created with Pixso.
	</desc>
	<defs/>
	<rect id="Rectangle 11" rx="45.500000" width="91.000000" height="91.000000" fill="#FAC663" fill-opacity="1.000000"/>
	<path id="Vector" d="M57.13 41.87C66.37 42.03 70.61 47.32 70.83 47.55C70.94 47.66 71 47.89 71 48.05L71 55.2C71 55.65 70.61 56.04 70.16 56.04L65.26 56.04C64.87 58.86 62.48 61 59.58 61C56.68 61 54.29 58.86 53.9 56.04L37.64 56.04C37.25 58.86 34.85 61 31.96 61C29.06 61 26.67 58.86 26.28 56.04L25.11 56.04C23.66 56.04 22.49 55.48 21.6 54.41C18.94 51.08 20.35 43.53 20.53 42.57C20.53 42.53 20.54 42.5 20.54 42.49C20.65 42.09 20.99 41.81 21.38 41.81L25.61 41.81C30.9 34.94 35.98 35.1 36.49 35.11C36.51 35.11 36.52 35.11 36.52 35.11L37.25 35.11L39.48 30.45C39.59 30.16 39.87 30 40.2 30L43.99 30C44.27 30 44.54 30.16 44.71 30.45L47.16 35.17L47.33 35.17C52.84 35.17 56.24 40.29 57.13 41.87ZM41.43 36.8L36.47 36.8L36.46 36.8C36.21 36.8 32.21 36.73 27.78 41.87L41.43 41.87L41.43 36.8ZM55.12 41.87C53.9 40.07 51.23 36.8 47.33 36.8L43.04 36.8L43.04 41.87L55.12 41.87ZM65.26 54.41L69.32 54.41L69.32 48.39C68.43 47.44 64.37 43.55 56.63 43.55L22.05 43.55C21.6 46.09 21.16 51.21 22.88 53.4C23.44 54.07 24.16 54.41 25.11 54.41L26.28 54.41C26.67 51.6 29.06 49.46 31.96 49.46C34.85 49.46 37.25 51.6 37.64 54.41L53.9 54.41C54.29 51.6 56.68 49.46 59.58 49.46C62.48 49.46 64.87 51.6 65.26 54.41Z" fill="#FFFDFB" fill-opacity="1.000000" fill-rule="evenodd"/>
</svg>
