<svg width="91.000000" height="91.000000" viewBox="0 0 91 91" fill="none" xmlns="http://www.w3.org/2000/svg" xmlns:xlink="http://www.w3.org/1999/xlink">
	<desc>
			Created with Pixso.
	</desc>
	<defs/>
	<rect id="Rectangle 13" rx="45.500000" width="91.000000" height="91.000000" fill="#FAC663" fill-opacity="1.000000"/>
	<path id="Vector" d="M67.36 30.59C67.78 30.46 68.24 30.52 68.57 30.79C68.95 31.09 69.09 31.56 68.93 31.99C68.54 33.11 67.9 34.89 67.67 35.51C67.77 35.81 67.83 36.14 67.85 36.47C67.92 37.66 67.66 38.68 67.08 39.44C66.95 40.12 66.42 42.92 66.16 45.12C65.98 46.56 65.46 47.97 64.64 49.19C63.61 50.75 62.54 52.6 62 53.56C61.85 53.83 61.76 54.11 61.72 54.4L60.85 61.44C61.73 61.7 62.43 62.37 62.66 63.23L62.9 64.13C62.98 64.41 62.86 64.7 62.6 64.87C62.47 64.96 62.31 64.99 62.15 64.99L58.59 64.99C58.3 64.99 58.04 64.84 57.92 64.6L52.68 54.62C52.52 54.32 52.42 53.99 52.39 53.66C49.69 53.08 45.08 54.31 43.99 54.63L40.4 59.51C40.12 59.89 40.11 60.39 40.38 60.78L40.92 61.57L42.24 61.75C43.6 61.95 44.57 63.05 44.5 64.33C44.48 64.69 44.14 64.99 43.75 64.99L39.14 64.99C38.94 64.99 38.75 64.92 38.61 64.79L35.42 61.84C34.89 61.34 34.6 60.66 34.62 59.95C34.64 59.44 34.67 58.84 34.71 58.18C34.71 58.18 34.71 58.18 34.71 58.17C34.71 58.14 34.71 58.1 34.71 58.06L30.92 59.46C30.51 59.61 30.27 59.99 30.32 60.39L30.51 61.82C31.59 62.13 32.45 62.93 32.76 63.97L32.8 64.11C32.88 64.39 32.77 64.69 32.51 64.87C32.38 64.96 32.22 65 32.06 65L28.08 65C27.71 65 27.39 64.74 27.34 64.39L26.37 57.71C26.24 56.76 26.76 55.82 27.69 55.38C29.02 54.75 29.97 53.59 30.17 52.22L30.7 48.72C30.75 48.37 30.78 48.02 30.79 47.66L30.81 46.94C30.81 46.8 30.79 46.66 30.75 46.52C30.27 44.95 29.15 43.64 27.61 42.82C26.02 41.97 24.74 40.97 23.8 39.84C22.49 38.28 21.89 36.52 22.01 34.63C22.14 32.75 22.69 29.21 25.01 26.65C25.71 25.88 26.92 25.77 27.77 26.4C28.21 26.73 28.48 27.21 28.51 27.73C28.54 28.25 28.34 28.76 27.95 29.13C27.03 29.99 25.92 31.59 25.87 34.3C25.8 37.3 29.27 39.26 31.34 40.16C32.71 40.75 33.88 41.69 34.71 42.85C35.67 42.48 37.92 41.87 43.6 40.95C47.99 40.23 52.74 39.61 55.17 39.29C55.84 39.21 56.42 38.81 56.71 38.25L57.15 37.38C57.12 37.09 57.11 36.79 57.13 36.47C57.15 36.14 57.21 35.82 57.31 35.51C57.09 34.89 56.45 33.13 56.06 32.02C55.93 31.64 56 31.23 56.27 30.92C56.59 30.57 57.1 30.43 57.57 30.57C59.14 31.03 60.33 31.97 60.9 32.5C61.93 32.2 63.05 32.2 64.09 32.5C64.65 31.98 65.81 31.05 67.36 30.59ZM60.67 52.92C61.22 51.94 62.31 50.06 63.36 48.46C64.06 47.41 64.51 46.2 64.66 44.96C64.84 43.55 65.11 41.89 65.33 40.69C64.76 40.89 64.12 40.98 63.41 40.97L63.4 40.97C63.4 40.97 61.48 40.97 61.43 40.97C60.12 40.97 59.03 40.59 58.27 39.86C58.09 39.68 57.93 39.49 57.79 39.28C57.24 40.04 56.37 40.55 55.38 40.67C41.51 42.45 35.68 43.75 34.9 44.33C34.73 44.46 34.51 44.51 34.29 44.47C34.08 44.43 33.9 44.31 33.79 44.14C33.78 44.13 33.74 44.07 33.74 44.07C33.08 42.92 32 41.98 30.71 41.42C28.31 40.37 24.28 38.06 24.36 34.28L23.51 34.71C23.38 36.61 24.12 39.34 28.36 41.61C30.24 42.61 31.6 44.22 32.19 46.14C32.19 46.14 32.32 46.58 32.32 46.65L32.23 50.66C32.22 51.01 32.36 51.35 32.61 51.62C34.02 53.14 36.37 56.03 36.2 58.26C36.17 58.91 36.14 59.5 36.12 60C36.11 60.32 36.24 60.63 36.49 60.85L39.45 63.6L42.81 63.6C42.64 63.36 42.35 63.18 42.01 63.13L40.36 62.9C40.14 62.87 39.95 62.75 39.84 62.58L39.11 61.52C38.52 60.66 38.54 59.56 39.16 58.72L42.9 53.64C43.46 52.87 43.43 51.87 42.82 51.13L41.72 49.82C41.47 49.51 41.53 49.07 41.85 48.84C42.18 48.6 42.65 48.66 42.91 48.96L44 50.28C44.66 51.06 44.91 52.04 44.76 52.97C46.67 52.5 50.04 51.83 52.49 52.26L53.14 46.94C53.18 46.56 53.55 46.28 53.97 46.32C54.38 46.37 54.67 46.71 54.63 47.09L53.88 53.22C53.85 53.49 53.9 53.76 54.03 54.01L59.06 63.6L61.21 63.6L61.2 63.57C61.07 63.07 60.58 62.72 60.02 62.72C59.67 62.72 59.36 62.48 59.29 62.16L57.44 53.68C57.27 52.9 57.47 52.09 57.97 51.45L60.04 48.84C60.96 47.67 61.38 46.24 61.22 44.81C61.18 44.43 61.48 44.08 61.89 44.04C62.3 44 62.67 44.28 62.72 44.66C62.91 46.45 62.39 48.22 61.25 49.66L59.18 52.27C58.93 52.6 58.83 53.01 58.91 53.4L59.82 57.57L60.23 54.25C60.29 53.78 60.44 53.33 60.67 52.92ZM66.18 35.75C66.11 35.59 66.11 35.42 66.18 35.27L66.17 35.24C66.13 34.38 66.11 34.12 64.87 33.75C64.66 33.99 64.31 34.07 64 33.95C63.04 33.57 61.94 33.57 60.98 33.95C60.68 34.07 60.32 33.99 60.11 33.75C59.25 34.12 59.25 34.12 58.81 35.27C58.87 35.42 58.87 35.59 58.81 35.75C58.71 36 58.65 36.27 58.63 36.55C58.57 37.57 58.82 38.38 59.35 38.89C59.84 39.36 60.59 39.59 61.52 39.58C61.56 39.57 63.24 39.58 63.4 39.58L63.42 39.58L63.42 39.58C63.42 39.58 63.43 39.58 63.44 39.58C64.39 39.6 65.15 39.36 65.64 38.89C66.17 38.38 66.42 37.57 66.35 36.55C66.34 36.27 66.28 36 66.18 35.75ZM28.83 60.56C28.69 59.53 29.32 58.55 30.36 58.17L34.39 56.68C33.92 55.55 32.96 54.16 31.61 52.68C31.23 54.37 30.04 55.82 28.37 56.62C28.01 56.79 27.81 57.16 27.86 57.53L28.74 63.6L30.85 63.6C30.56 63.32 30.17 63.14 29.74 63.09C29.39 63.05 29.12 62.8 29.08 62.48L28.83 60.56Z" fill="#FFFDFB" fill-opacity="1.000000" fill-rule="evenodd"/>
</svg>
