<svg width="91.000000" height="91.000000" viewBox="0 0 91 91" fill="none" xmlns="http://www.w3.org/2000/svg" xmlns:xlink="http://www.w3.org/1999/xlink">
	<desc>
			Created with Pixso.
	</desc>
	<defs/>
	<rect id="Rectangle 12" rx="45.500000" width="91.000000" height="91.000000" fill="#FAC663" fill-opacity="1.000000"/>
	<path id="Vector 24" d="M47.15 46.61C50.43 46.61 53.11 50.05 53.11 50.92C53.11 51.78 50.43 54.64 47.15 54.64C43.88 54.64 41.5 50.92 41.5 50.92C41.5 50.92 43.88 46.61 47.15 46.61ZM37.26 48.19L37.23 48.19C36.83 47.8 36.81 47.18 37.2 46.78C37.59 46.38 38.21 46.36 38.62 46.75L38.62 46.78L37.26 48.19ZM38.62 55.05L38.62 55.08C38.21 55.47 37.59 55.46 37.2 55.05C36.81 54.65 36.83 54.03 37.23 53.64L37.26 53.64L38.62 55.05Z" fill="#FFFDFB" fill-opacity="1.000000" fill-rule="nonzero"/>
	<path id="Vector 24" d="M37.92 47.47L41.5 50.92C41.5 50.92 43.88 54.64 47.15 54.64C50.43 54.64 53.11 51.78 53.11 50.92C53.11 50.05 50.43 46.61 47.15 46.61C43.88 46.61 41.5 50.92 41.5 50.92M41.5 50.92L37.92 " stroke="#FFFDFB" stroke-opacity="1.000000" stroke-width="2.000000" stroke-linejoin="round" stroke-linecap="round"/>
	<path id="Vector" d="M68.65 38.88L71.98 61.29C72.04 61.72 71.91 62.15 71.62 62.48C71.32 62.81 70.89 63 70.44 63L20.55 63C20.1 63 19.67 62.81 19.37 62.48C19.08 62.15 18.95 61.72 19.01 61.29L22.34 38.88C22.45 38.15 23.1 37.6 23.87 37.6L27.95 37.6C28.66 34.51 31.48 33.59 31.8 33.49C33.33 30.54 36.47 30.4 36.81 30.39C38.67 28.46 41.18 28.45 42.52 28.78C44.87 27.43 47.28 28.09 48.47 28.78C49.81 28.45 52.32 28.45 54.18 30.39C54.52 30.4 57.66 30.54 59.19 33.49C59.5 33.59 62.32 34.5 63.04 37.6L67.12 37.6C67.89 37.6 68.54 38.15 68.65 38.88ZM24.03 38.87L20.55 61.73L70.44 61.73L66.96 38.87L24.03 38.87Z" fill="#FFFDFB" fill-opacity="1.000000" fill-rule="evenodd"/>
	<path id="Vector" d="" fill="#FFFDFB" fill-opacity="1.000000" fill-rule="evenodd"/>
</svg>
