<svg width="36.000000" height="36.000000" viewBox="0 0 36 36" fill="none" xmlns="http://www.w3.org/2000/svg" xmlns:xlink="http://www.w3.org/1999/xlink">
	<desc>
			Created with Pixso.
	</desc>
	<defs/>
	<path id="Vector" d="M35 18C35 22.8 33.12 27.32 29.72 30.72C26.32 34.12 21.8 35.99 17 36L17 36C12.19 36 7.67 34.12 4.27 30.72C0.87 27.32 -1 22.8 -1 18C-1 13.19 0.87 8.67 4.27 5.27C7.67 1.87 12.19 0 17 0L17 0C21.8 0 26.32 1.87 29.72 5.27C33.12 8.67 35 13.19 35 18Z" fill="#FFFEFD" fill-opacity="1.000000" fill-rule="nonzero"/>
	<path id="Vector" d="M23.8 15.52C20.83 17.22 21.34 22.18 24.55 22.18C25.94 22.18 27.14 21.14 27.68 19.81C28.91 16.73 26.34 14.06 23.8 15.52Z" fill="#FF7236" fill-opacity="1.000000" fill-rule="nonzero"/>
	<path id="Vector" d="M20.75 16.13C24.31 16.13 25.38 10.09 22 9.1C20.46 8.65 18.71 9.73 18.14 11.72C17.51 13.94 18.75 16.13 20.75 16.13Z" fill="#FF7236" fill-opacity="1.000000" fill-rule="nonzero"/>
	<path id="Vector" d="M19.84 26.89C19.35 26.75 18.47 26.66 17.55 26.65C16.58 26.63 15.57 26.7 14.91 26.89C13.13 27.38 10.72 26.18 11.25 23.7C11.74 21.4 13.5 21.53 13.92 19.36C14.34 17.16 15.97 16.1 17.55 16.18C19.02 16.26 20.45 17.31 20.83 19.36C21.25 21.54 23.01 21.4 23.49 23.7C24.03 26.19 21.61 27.38 19.84 26.89Z" fill="#FF7236" fill-opacity="1.000000" fill-rule="nonzero"/>
	<path id="Vector" d="M14.49 16.13C15.5 16.13 16.36 15.55 16.84 14.66C18.27 12 15.93 8.31 13.25 9.1C9.87 10.1 10.94 16.13 14.49 16.13Z" fill="#FF7236" fill-opacity="1.000000" fill-rule="nonzero"/>
	<path id="Vector" d="M12.89 20.2C14.03 17.41 11.32 14 8.74 15.07C5.62 16.36 7 21.94 10.42 21.94C11.52 21.94 12.45 21.27 12.89 20.2Z" fill="#FF7236" fill-opacity="1.000000" fill-rule="nonzero"/>
	<path id="Vector" d="M19.84 26.89C19.34 26.75 18.47 26.66 17.55 26.65L17.55 16.18C19.02 16.26 20.45 17.31 20.83 19.36C21.25 21.54 23.01 21.4 23.49 23.7C24.03 26.19 21.61 27.38 19.84 26.89Z" fill="#FF7236" fill-opacity="1.000000" fill-rule="nonzero"/>
</svg>
