<svg width="36.000000" height="36.000000" viewBox="0 0 36 36" fill="none" xmlns="http://www.w3.org/2000/svg" xmlns:xlink="http://www.w3.org/1999/xlink">
	<desc>
			Created with Pixso.
	</desc>
	<defs/>
	<path id="Vector" d="M36 18C36 22.8 34.12 27.32 30.72 30.72C27.32 34.12 22.8 35.99 18 36L18 36C13.19 36 8.67 34.12 5.27 30.72C1.87 27.32 0 22.8 0 18C0 13.19 1.87 8.67 5.27 5.27C8.67 1.87 13.19 0 18 0L18 0C22.8 0 27.32 1.87 30.72 5.27C34.12 8.67 36 13.19 36 18Z" fill="#FF7236" fill-opacity="1.000000" fill-rule="nonzero"/>
	<path id="Vector" d="M24.8 15.52C21.83 17.22 22.34 22.18 25.55 22.18C26.94 22.18 28.14 21.14 28.68 19.81C29.91 16.73 27.34 14.06 24.8 15.52Z" fill="#FFFEFD" fill-opacity="1.000000" fill-rule="nonzero"/>
	<path id="Vector" d="M21.75 16.13C25.31 16.13 26.38 10.09 23 9.1C21.46 8.65 19.71 9.73 19.14 11.72C18.51 13.94 19.75 16.13 21.75 16.13Z" fill="#FFFEFD" fill-opacity="1.000000" fill-rule="nonzero"/>
	<path id="Vector" d="M20.84 26.89C20.34 26.75 19.47 26.66 18.55 26.65C17.58 26.63 16.57 26.7 15.91 26.89C14.13 27.38 11.72 26.18 12.25 23.7C12.74 21.4 14.5 21.53 14.92 19.36C15.34 17.16 16.97 16.1 18.55 16.18C20.02 16.26 21.45 17.31 21.83 19.36C22.25 21.54 24.01 21.4 24.49 23.7C25.03 26.19 22.61 27.38 20.84 26.89Z" fill="#FFFEFD" fill-opacity="1.000000" fill-rule="nonzero"/>
	<path id="Vector" d="M15.49 16.13C16.5 16.13 17.36 15.55 17.84 14.66C19.27 12 16.93 8.31 14.25 9.1C10.87 10.1 11.94 16.13 15.49 16.13Z" fill="#FFFEFD" fill-opacity="1.000000" fill-rule="nonzero"/>
	<path id="Vector" d="M13.89 20.2C15.03 17.41 12.32 14 9.74 15.07C6.62 16.36 7.99 21.94 11.42 21.94C12.52 21.94 13.45 21.27 13.89 20.2Z" fill="#FFFEFD" fill-opacity="1.000000" fill-rule="nonzero"/>
	<path id="Vector" d="M20.84 26.89C20.34 26.75 19.47 26.66 18.55 26.65L18.55 16.18C20.02 16.26 21.45 17.31 21.83 19.36C22.25 21.54 24.01 21.4 24.49 23.7C25.03 26.19 22.61 27.38 20.84 26.89Z" fill="#FFFEFD" fill-opacity="1.000000" fill-rule="nonzero"/>
</svg>
