<svg width="20.000000" height="21.000000" viewBox="0 0 20 21" fill="none" xmlns="http://www.w3.org/2000/svg" xmlns:xlink="http://www.w3.org/1999/xlink">
	<desc>
			Created with Pixso.
	</desc>
	<defs/>
	<path id="“" d="M-0.12 15.37C0.24 17.29 0.95 19.12 2.01 20.87L6.33 19.15C6.81 18.95 7.12 18.64 7.26 18.21C7.41 17.78 7.31 17.29 6.98 16.73C6.21 15.44 5.7 14.12 5.46 12.77C5.22 11.43 5.18 10.13 5.32 8.89C5.46 7.64 5.75 6.49 6.18 5.43C6.64 4.35 7.16 3.45 7.73 2.73Q7.79 2.67 7.84 2.6Q8.07 2.28 8.13 1.83C8.18 1.45 8.01 1.12 7.62 0.86L5.43 -0.47Q3.16 1.49 1.74 3.94Q1.67 4.06 1.61 4.17C0.68 5.9 0.06 7.71 -0.22 9.61Q-0.32 10.25 -0.37 10.9Q-0.53 13.11 -0.12 15.37ZM11.08 15.37C11.44 17.29 12.15 19.12 13.2 20.87L17.52 19.15C18 18.95 18.32 18.64 18.46 18.21C18.6 17.78 18.51 17.29 18.17 16.73C17.4 15.44 16.9 14.12 16.66 12.77C16.42 11.43 16.37 10.13 16.52 8.89C16.66 7.64 16.95 6.49 17.38 5.43C17.84 4.35 18.35 3.45 18.93 2.73C19.14 2.49 19.28 2.19 19.32 1.83C19.37 1.45 19.2 1.12 18.82 0.86L16.62 -0.47Q14.35 1.49 12.94 3.94Q12.87 4.06 12.81 4.17C11.87 5.9 11.26 7.71 10.97 9.61C10.68 11.5 10.72 13.42 11.08 15.37Z" fill="#FAC663" fill-opacity="1.000000" fill-rule="evenodd"/>
</svg>
